<svg version="1.2" xmlns="http://www.w3.org/2000/svg" viewBox="0 0 120 40" width="120" height="40">
	<title>logo</title>
	<defs>
		<clipPath clipPathUnits="userSpaceOnUse" id="cp1">
			<path d="m0 0h120v40h-120z"/>
		</clipPath>
	</defs>
	<style>
		.s0 { fill: #ffa653 } 
		.s1 { fill: #ffffff } 
		.s2 { fill: #130e06 } 
	</style>
	<g id="Clip-Path" clip-path="url(#cp1)">
		<g>
			<path class="s0" d="m18.8 33c7.2 0 13-5.8 13-13 0-7.2-5.8-13-13-13-7.2 0-13 5.8-13 13 0 7.2 5.8 13 13 13z"/>
			<path class="s1" d="m18.8 21.8c1.1 0 1.9-0.8 1.9-1.8 0-1.1-0.8-1.9-1.9-1.9-1 0-1.8 0.8-1.8 1.9 0 1 0.8 1.8 1.8 1.8z"/>
			<path class="s1" d="m22.9 17.7c-1 0-1.8-0.8-1.8-1.8 0-1.1 0.8-1.9 1.8-1.9 1 0 1.9 0.8 1.9 1.9 0 1-0.9 1.8-1.9 1.8zm0-3.1c-0.7 0-1.3 0.6-1.3 1.3 0 0.7 0.6 1.2 1.3 1.2 0.7 0 1.3-0.5 1.3-1.2 0-0.7-0.6-1.3-1.3-1.3z"/>
			<path class="s1" d="m18.7 13.6c-1 0-1.8-0.8-1.8-1.8 0-1.1 0.8-1.9 1.8-1.9 1.1 0 1.9 0.8 1.9 1.9 0 1-0.8 1.8-1.9 1.8zm0-3.1c-0.7 0-1.2 0.6-1.2 1.3 0 0.7 0.5 1.2 1.2 1.2 0.7 0 1.3-0.5 1.3-1.2 0-0.7-0.6-1.3-1.3-1.3z"/>
			<path class="s1" d="m14.7 17.7c-1.1 0-1.9-0.8-1.9-1.8 0-1.1 0.8-1.9 1.9-1.9 1 0 1.8 0.8 1.8 1.9 0 1-0.8 1.8-1.8 1.8zm0-3.1c-0.7 0-1.3 0.6-1.3 1.3 0 0.7 0.6 1.2 1.3 1.2 0.7 0 1.2-0.5 1.2-1.2 0-0.7-0.5-1.3-1.2-1.3z"/>
			<path class="s1" d="m18.8 30.1c-1 0-1.9-0.8-1.9-1.8 0-1.1 0.9-1.9 1.9-1.9 1 0 1.8 0.8 1.8 1.9 0 1-0.8 1.8-1.8 1.8zm0-3.1c-0.7 0-1.2 0.6-1.2 1.3 0 0.7 0.5 1.2 1.2 1.2 0.7 0 1.3-0.5 1.3-1.2 0-0.7-0.6-1.3-1.3-1.3z"/>
			<path class="s1" d="m14.7 26c-1.1 0-1.9-0.9-1.9-1.9 0-1 0.8-1.8 1.9-1.8 1 0 1.8 0.8 1.8 1.8 0 1-0.8 1.9-1.8 1.9zm0-3.2c-0.7 0-1.3 0.6-1.3 1.3 0 0.7 0.6 1.3 1.3 1.3 0.7 0 1.2-0.6 1.2-1.3 0-0.7-0.5-1.3-1.2-1.3z"/>
			<path class="s1" d="m10.5 21.8c-1 0-1.8-0.8-1.8-1.8 0-1 0.8-1.9 1.8-1.9 1 0 1.9 0.9 1.9 1.9 0 1-0.9 1.8-1.9 1.8zm0-3.1c-0.7 0-1.3 0.6-1.3 1.3 0 0.7 0.6 1.3 1.3 1.3 0.7 0 1.3-0.6 1.3-1.3 0-0.7-0.6-1.3-1.3-1.3z"/>
			<path class="s1" d="m22.9 25.9c-1 0-1.8-0.8-1.8-1.8 0-1 0.8-1.9 1.8-1.9 1 0 1.9 0.9 1.9 1.9 0 1-0.9 1.8-1.9 1.8zm0-3.1c-0.7 0-1.3 0.6-1.3 1.3 0 0.7 0.6 1.3 1.3 1.3 0.7 0 1.3-0.6 1.3-1.3 0-0.7-0.6-1.3-1.3-1.3z"/>
			<path class="s1" d="m27 21.8c-1 0-1.8-0.8-1.8-1.8 0-1 0.8-1.9 1.8-1.9 1.1 0 1.9 0.9 1.9 1.9 0 1-0.8 1.8-1.9 1.8zm0-3.1c-0.7 0-1.2 0.6-1.2 1.3 0 0.7 0.5 1.3 1.2 1.3 0.7 0 1.3-0.6 1.3-1.3 0-0.7-0.6-1.3-1.3-1.3z"/>
			<filter id="f0">
				<feFlood flood-color="#ffffff" flood-opacity="1" />
				<feBlend mode="normal" in2="SourceGraphic"/>
				<feComposite in2="SourceAlpha" operator="in" />
			</filter>
			<g id="Folder 1" filter="url(#f0)">
				<path class="s2" d="m39.6 13.7h1v3.5c0.6-2.1 2.4-3.7 4.8-3.7 3.3 0 5.5 2.7 5.5 6.8 0 4.1-2.2 6.8-5.5 6.8-2.4 0-4.2-1.6-4.8-3.7v8h-1v-17.7zm10.3 6.6c0-3.5-1.8-5.9-4.6-5.9-2.8 0-4.7 2.4-4.7 5.9 0 3.5 1.9 5.9 4.7 5.9 2.8 0 4.6-2.3 4.6-5.9z"/>
				<path class="s2" d="m53.6 21.8v-8.3h1v8.2c0 2.8 1.5 4.3 3.9 4.3 2.5 0 4.3-1.9 4.3-4.6v-7.9h1v13.2h-1v-2.7c-0.6 1.7-2.2 2.9-4.5 2.9-2.9 0-4.7-1.9-4.7-5.1z"/>
				<path class="s2" d="m66.5 8.6h1v18.3h-1z"/>
				<path class="s2" d="m69.7 23.2v-0.1h1v0.1c0.3 1.8 1.8 3.1 4 3.1 2.2 0 3.8-1.2 3.8-2.8 0-1.4-0.8-2.1-2.9-2.6l-1.8-0.5c-2.5-0.6-3.7-1.6-3.7-3.3 0-2.1 1.9-3.6 4.5-3.6 2.6 0 4.4 1.6 4.6 3.9v0.1h-0.9v-0.1c-0.3-1.8-1.7-3-3.7-3-2.1 0-3.5 1.1-3.5 2.7 0 1.2 0.9 2 3 2.5l1.8 0.4c2.5 0.6 3.6 1.6 3.6 3.5 0 2.1-2 3.6-4.8 3.6-2.7 0-4.7-1.6-5-3.9z"/>
				<path class="s2" d="m80.5 20.3c0-4.2 2.3-6.8 5.7-6.8 3.4 0 5.6 2.6 5.6 6.5v0.5h-10.3c0 3.7 1.9 5.7 4.8 5.7 2.3 0 3.8-1.1 4.3-3l0.1-0.1h0.9v0.1c-0.5 2.4-2.5 3.9-5.3 3.9-3.5 0-5.8-2.5-5.8-6.8zm1-0.6h9.3c-0.1-3.3-2-5.3-4.6-5.3-2.7 0-4.6 2-4.7 5.3z"/>
				<path class="s2" d="m99.7 9.9c0-0.4 0.3-0.7 0.7-0.7 0.4 0 0.8 0.3 0.8 0.7 0 0.5-0.4 0.8-0.8 0.8-0.4 0-0.7-0.4-0.7-0.8zm0.2 3.4h1v13.2h-1z"/>
				<path class="s2" d="m102.9 19.8c0-4.1 2.2-6.8 5.4-6.8 2.4 0 4.3 1.5 4.9 3.7v-8.6h1v18.3h-1v-3.4c-0.7 2.2-2.5 3.6-4.8 3.6-3.3 0-5.5-2.7-5.5-6.8zm10.3 0c0-3.5-1.9-5.9-4.7-5.9-2.7 0-4.6 2.4-4.6 5.9 0 3.6 1.8 6 4.6 6 2.8 0 4.7-2.5 4.7-6z"/>
			</g>
		</g>
	</g>
</svg>