<svg xmlns="http://www.w3.org/2000/svg" viewBox="0 0 120 40" fill="none"><g clip-path="url(#clip0_2050_3604)"><path d="M18.7861 33C25.9578 33 31.7714 27.1798 31.7714 20C31.7714 12.8203 25.9578 7 18.7861 7C11.6145 7 5.80078 12.8203 5.80078 20C5.80078 27.1798 11.6145 33 18.7861 33Z" fill="#FFA653"></path><path d="M18.8387 21.8179C19.8606 21.8179 20.6891 20.9885 20.6891 19.9653C20.6891 18.9422 19.8606 18.1128 18.8387 18.1128C17.8167 18.1128 16.9883 18.9422 16.9883 19.9653C16.9883 20.9885 17.8167 21.8179 18.8387 21.8179Z" fill="white"></path><path d="M22.909 17.7133C21.881 17.7133 21.0586 16.8791 21.0586 15.8608C21.0586 14.8425 21.8918 14.0083 22.909 14.0083C23.9262 14.0083 24.7594 14.8425 24.7594 15.8608C24.7594 16.8791 23.9262 17.7133 22.909 17.7133ZM22.909 14.5825C22.2056 14.5825 21.632 15.1566 21.632 15.8608C21.632 16.565 22.2056 17.1391 22.909 17.1391C23.6124 17.1391 24.1858 16.565 24.1858 15.8608C24.1858 15.1566 23.6124 14.5825 22.909 14.5825Z" fill="white"></path><path d="M18.741 13.6083C17.713 13.6083 16.8906 12.7741 16.8906 11.7558C16.8906 10.7375 17.7238 9.90332 18.741 9.90332C19.7582 9.90332 20.5914 10.7375 20.5914 11.7558C20.5914 12.7741 19.7582 13.6083 18.741 13.6083ZM18.741 10.4775C18.0376 10.4775 17.4641 11.0516 17.4641 11.7558C17.4641 12.46 18.0376 13.0342 18.741 13.0342C19.4444 13.0342 20.018 12.46 20.018 11.7558C20.018 11.0516 19.4444 10.4775 18.741 10.4775Z" fill="white"></path><path d="M14.659 17.7133C13.631 17.7133 12.8086 16.8791 12.8086 15.8608C12.8086 14.8425 13.6418 14.0083 14.659 14.0083C15.6762 14.0083 16.5094 14.8425 16.5094 15.8608C16.5094 16.8791 15.6762 17.7133 14.659 17.7133ZM14.659 14.5825C13.9556 14.5825 13.3821 15.1566 13.3821 15.8608C13.3821 16.565 13.9556 17.1391 14.659 17.1391C15.3624 17.1391 15.9359 16.565 15.9359 15.8608C15.9359 15.1566 15.3624 14.5825 14.659 14.5825Z" fill="white"></path><path d="M18.7801 30.1205C17.7521 30.1205 16.9297 29.2863 16.9297 28.2681C16.9297 27.2497 17.7629 26.4155 18.7801 26.4155C19.7973 26.4155 20.6304 27.2497 20.6304 28.2681C20.6304 29.2863 19.7973 30.1205 18.7801 30.1205ZM18.8342 26.9897C18.1308 26.9897 17.5573 27.5639 17.5573 28.2681C17.5573 28.9723 18.1308 29.5463 18.8342 29.5463C19.5376 29.5463 20.111 28.9723 20.111 28.2681C20.111 27.5639 19.5376 26.9897 18.8342 26.9897Z" fill="white"></path><path d="M14.659 25.9653C13.631 25.9653 12.8086 25.1311 12.8086 24.1129C12.8086 23.0945 13.6418 22.2603 14.659 22.2603C15.6762 22.2603 16.5094 23.0945 16.5094 24.1129C16.5094 25.1311 15.6762 25.9653 14.659 25.9653ZM14.659 22.8345C13.9556 22.8345 13.3821 23.4087 13.3821 24.1129C13.3821 24.8171 13.9556 25.3911 14.659 25.3911C15.3624 25.3911 15.9359 24.8171 15.9359 24.1129C15.9359 23.4087 15.3624 22.8345 14.659 22.8345Z" fill="white"></path><path d="M10.5262 21.8349C9.4982 21.8349 8.67578 21.0007 8.67578 19.9824C8.67578 18.964 9.50902 18.1299 10.5262 18.1299C11.5434 18.1299 12.3766 18.964 12.3766 19.9824C12.3766 21.0007 11.5434 21.8349 10.5262 21.8349ZM10.5262 18.7041C9.82282 18.7041 9.24932 19.2782 9.24932 19.9824C9.24932 20.6865 9.82282 21.2607 10.5262 21.2607C11.2296 21.2607 11.8031 20.6865 11.8031 19.9824C11.8031 19.2782 11.2296 18.7041 10.5262 18.7041Z" fill="white"></path><path d="M22.9168 25.948C21.8888 25.948 21.0664 25.114 21.0664 24.0956C21.0664 23.0772 21.8996 22.2432 22.9168 22.2432C23.934 22.2432 24.7672 23.0772 24.7672 24.0956C24.7672 25.114 23.934 25.948 22.9168 25.948ZM22.9168 22.8172C22.2134 22.8172 21.64 23.3914 21.64 24.0956C21.64 24.7998 22.2134 25.374 22.9168 25.374C23.6202 25.374 24.1938 24.7998 24.1938 24.0956C24.1938 23.3914 23.6202 22.8172 22.9168 22.8172Z" fill="white"></path><path d="M27.0418 21.8349C26.0138 21.8349 25.1914 21.0007 25.1914 19.9824C25.1914 18.964 26.0246 18.1299 27.0418 18.1299C28.059 18.1299 28.8922 18.964 28.8922 19.9824C28.8922 21.0007 28.059 21.8349 27.0418 21.8349ZM27.0418 18.7041C26.3384 18.7041 25.765 19.2782 25.765 19.9824C25.765 20.6865 26.3384 21.2607 27.0418 21.2607C27.7452 21.2607 28.3188 20.6865 28.3188 19.9824C28.3188 19.2782 27.7452 18.7041 27.0418 18.7041Z" fill="white"></path><path d="M39.5898 13.7162H40.5612V17.2478H40.5824C41.191 15.1137 43.0056 13.4995 45.3968 13.4995C48.6634 13.4995 50.905 16.2295 50.905 20.3028V20.3246C50.905 24.4088 48.6634 27.1278 45.4182 27.1278C43.0164 27.1278 41.1802 25.5136 40.5932 23.4228H40.5718V31.3528H39.6004V13.7054L39.5898 13.7162ZM49.923 20.3354V20.3136C49.923 16.7712 48.0442 14.3987 45.2794 14.3987C42.5146 14.3987 40.5504 16.7929 40.5504 20.3136C40.5504 23.8454 42.5146 26.2504 45.2794 26.2504C48.0442 26.2504 49.923 23.8778 49.923 20.3354Z" fill="#130E06"></path><path d="M53.6071 21.7979V13.4995H54.5679V21.6895C54.5679 24.5171 56.0517 26.0229 58.5283 26.0229C61.0049 26.0229 62.8197 24.1271 62.8197 21.3861V13.4995H63.7911V26.7053H62.8197V23.9645H62.7769C62.1791 25.6545 60.5671 26.9111 58.2935 26.9111C55.3685 26.9111 53.5859 25.0371 53.5859 21.8087L53.6071 21.7979Z" fill="#130E06"></path><path d="M66.5078 8.62451H67.4782V26.9437H66.5078V8.62451Z" fill="#130E06"></path><path d="M69.7383 23.2279V23.1087H70.6883L70.7097 23.2279C70.9551 25.0153 72.5137 26.2721 74.7127 26.2721C76.9117 26.2721 78.4809 25.1453 78.4809 23.5095C78.4809 22.0903 77.6697 21.3645 75.5775 20.8663L73.7627 20.4329C71.2861 19.8478 70.1439 18.8187 70.1439 17.0962C70.1439 14.9837 71.9907 13.4995 74.5739 13.4995C77.1573 13.4995 78.9721 15.0595 79.2389 17.4104V17.5295H78.3101V17.4429C78.0433 15.5904 76.6449 14.3662 74.5739 14.3662C72.5031 14.3662 71.1259 15.4929 71.1259 17.0745C71.1259 18.342 71.9693 19.0787 74.0509 19.577L75.8657 20.0103C78.4169 20.6171 79.4737 21.6245 79.4737 23.4553C79.4737 25.6437 77.4989 27.1495 74.7341 27.1495C71.9693 27.1495 69.9945 25.5353 69.7383 23.2387V23.2279Z" fill="#130E06"></path><path d="M80.5039 20.3245C80.5039 16.1103 82.7883 13.4995 86.1723 13.4995C89.5561 13.4995 91.7871 16.067 91.7871 20.0211V20.4761H81.4753C81.5287 24.1811 83.4395 26.2395 86.3217 26.2395C88.5847 26.2395 90.1325 25.0695 90.6129 23.2279L90.6557 23.1303H91.6271L91.6057 23.2495C91.0933 25.6111 89.0865 27.1387 86.3109 27.1387C82.7883 27.1387 80.5039 24.5603 80.5039 20.3353V20.3245ZM81.4753 19.6528H90.8157C90.6877 16.3812 88.7983 14.3879 86.1509 14.3879C83.5035 14.3879 81.5927 16.4245 81.4753 19.6528Z" fill="#130E06"></path><path d="M99.6562 9.92482C99.6562 9.49148 100.008 9.1665 100.403 9.1665C100.798 9.1665 101.161 9.49148 101.161 9.92482C101.161 10.3581 100.809 10.6723 100.403 10.6723C99.9978 10.6723 99.6562 10.3473 99.6562 9.92482ZM99.923 13.2615H100.884V26.4674H99.923V13.2615Z" fill="#130E06"></path><path d="M102.883 19.7938C102.883 15.7097 105.135 12.9905 108.348 12.9905C110.675 12.9905 112.554 14.453 113.195 16.6955H113.237V8.08301H114.198V26.4023H113.237V22.9789H113.173C112.501 25.1781 110.654 26.6189 108.359 26.6189C105.135 26.6189 102.893 23.8781 102.893 19.7938H102.883ZM113.227 19.8263C113.227 16.3272 111.252 13.8897 108.508 13.8897C105.765 13.8897 103.854 16.2622 103.854 19.7938C103.854 23.3689 105.733 25.7521 108.519 25.7521C111.305 25.7521 113.227 23.3147 113.227 19.8372V19.8263Z" fill="#130E06"></path></g><defs><clipPath id="clip0_2050_3604"><rect width="120" height="40" fill="white"></rect></clipPath></defs></svg>